<?xml version="1.0" standalone="no"?>
<!DOCTYPE svg PUBLIC "-//W3C//DTD SVG 20010904//EN"
 "http://www.w3.org/TR/2001/REC-SVG-20010904/DTD/svg10.dtd">
<svg version="1.0" xmlns="http://www.w3.org/2000/svg"
 width="24.000000pt" height="24.000000pt" viewBox="0 0 24.000000 24.000000"
 preserveAspectRatio="xMidYMid meet">
<metadata>
Created by potrace 1.10, written by Peter Selinger 2001-2011
</metadata>
<g transform="translate(0.000000,24.000000) scale(0.100000,-0.100000)"
fill="#000000" stroke="none">
<path d="M44 166 c-19 -19 -34 -39 -34 -46 0 -7 15 -27 34 -46 28 -28 42 -34
76 -34 34 0 48 6 76 34 19 19 34 39 34 46 0 7 -15 27 -34 46 -28 28 -42 34
-76 34 -34 0 -48 -6 -76 -34z m130 -7 c14 -11 26 -29 26 -39 0 -25 -46 -60
-80 -60 -34 0 -80 35 -80 60 0 25 46 60 80 60 15 0 39 -9 54 -21z"/>
<path d="M90 145 c-26 -32 13 -81 48 -59 22 14 27 41 12 59 -16 19 -44 19 -60
0z m46 -16 c10 -17 -13 -36 -27 -22 -12 12 -4 33 11 33 5 0 12 -5 16 -11z"/>
</g>
</svg>
