<?xml version="1.0" standalone="no"?>
<!DOCTYPE svg PUBLIC "-//W3C//DTD SVG 20010904//EN"
 "http://www.w3.org/TR/2001/REC-SVG-20010904/DTD/svg10.dtd">
<svg version="1.0" xmlns="http://www.w3.org/2000/svg"
 width="159.000000pt" height="140.000000pt" viewBox="0 0 159.000000 140.000000"
 preserveAspectRatio="xMidYMid meet">
<metadata>
Created by potrace 1.10, written by Peter Selinger 2001-2011
</metadata>
<g transform="translate(0.000000,140.000000) scale(0.050000,-0.050000)"
fill="#101c77" stroke="none">
<path d="M1960 2717 c-32 -14 -174 -17 -402 -8 -586 21 -879 -41 -1035 -219
-169 -193 -114 -506 104 -589 l56 -21 -106 -118 c-484 -536 -483 -1361 2
-1620 282 -150 680 -147 979 7 66 34 67 34 123 -20 148 -142 476 -21 418 153
-21 65 -20 176 9 653 19 316 40 689 46 829 l12 254 202 -10 c111 -5 231 -13
267 -18 91 -11 298 25 398 69 149 66 201 212 53 151 -93 -39 -423 -39 -716 0
-121 16 -289 30 -373 30 l-153 0 25 98 c15 53 20 107 13 119 -24 38 -165 -19
-200 -81 -25 -44 -47 -56 -99 -56 -173 0 -513 -139 -710 -288 -267 -204 -494
195 -235 413 120 101 377 116 1094 62 l163 -13 92 86 c134 123 119 197 -27
137z m-71 -688 c21 -22 31 -69 31 -148 l0 -117 -105 -8 c-58 -5 -107 -7 -109
-6 -4 1 60 219 84 285 12 34 61 31 99 -6z m-324 0 c6 -7 4 -40 -6 -75 -9 -35
-26 -102 -38 -149 l-23 -85 -197 0 c-154 0 -199 -6 -208 -29 -17 -44 10 -52
207 -65 99 -7 180 -14 180 -17 0 -30 -95 -300 -130 -369 -83 -163 -232 -254
-357 -218 -141 40 -113 167 69 308 42 33 75 73 72 90 -23 152 -394 -229 -394
-405 0 -424 683 -62 881 468 41 110 48 117 110 117 42 0 89 19 129 53 l63 53
-12 -118 c-13 -128 -71 -928 -71 -976 0 -18 -24 -32 -63 -36 -73 -7 -134 -77
-155 -178 -14 -71 -80 -105 -280 -148 l-69 -15 44 55 c79 101 47 230 -87 347
-243 213 -414 -108 -177 -331 l72 -68 -58 13 c-407 90 -571 311 -570 767 2
390 219 802 451 855 86 20 89 19 69 -18 -45 -85 17 -82 119 4 138 116 385 214
429 170z"/>
<path d="M2455 465 c135 -3 355 -3 490 0 135 4 25 6 -245 6 -269 0 -380 -2
-245 -6z"/>
</g>
</svg>
