<svg xmlns="http://www.w3.org/2000/svg" xmlns:v="https://svgstorm.com"
viewBox = "0 0 64 64"
width="64"
height="64">
<g fill="None" fill-opacity="0.0" stroke="#000000" stroke-opacity="0.00" stroke-width="0.3"><path d="
M 0.00 64.00 
L 64.00 64.00
L 64.00 0.00
L 0.00 0.00
L 0.00 64.00
M 38.00 11.00 
C 42.91 11.46 51.73 18.43 46.74 24.74 C 41.75 31.06 35.50 18.30 30.00 21.00 C 24.49 23.70 20.59 32.16 24.93 39.07 C 29.27 45.98 33.31 43.15 40.08 39.08 C 46.85 35.02 50.24 48.02 43.25 51.25 C 36.26 54.47 30.28 57.14 23.77 53.23 C 17.26 49.32 14.14 44.99 13.00 38.00
C 12.92 37.51 13.00 37.00 13.00 37.00
C 13.00 36.50 13.00 36.00 13.00 36.00
C 13.00 19.83 18.93 10.00 36.00 10.00
C 36.50 10.00 37.00 10.00 37.00 10.00
C 37.35 10.03 37.75 10.91 38.00 11.00 Z"/>
</g>
<g fill="None" fill-opacity="0.0" stroke="#E41827" stroke-opacity="0.90" stroke-width="0.3"><path d="
M 13.00 36.00 
C 18.80 39.38 19.12 23.50 22.00 20.00
C 22.12 19.03 19.26 15.32 23.70 14.70 C 28.13 14.07 27.33 10.93 32.00 12.00
C 32.00 13.00 32.00 14.00 32.00 15.00
C 34.38 14.10 35.49 13.16 37.00 11.00
C 36.98 11.03 36.23 10.05 36.00 10.00
C 18.93 10.00 13.00 19.83 13.00 36.00 Z"/>
</g>
<g fill="None" fill-opacity="0.0" stroke="#E41827" stroke-opacity="0.42" stroke-width="0.3"><path d="
M 37.00 11.00 
C 36.75 10.75 37.00 10.00 37.00 10.00
C 37.00 10.00 36.50 10.00 36.00 10.00
C 36.23 10.05 36.98 11.03 37.00 11.00 Z"/>
</g>
<g fill="None" fill-opacity="0.0" stroke="#EC1224" stroke-opacity="0.05" stroke-width="0.3"><path d="
M 37.00 11.00 
C 37.16 10.77 38.00 11.00 38.00 11.00
C 37.75 10.91 37.35 10.03 37.00 10.00
C 37.00 10.00 36.75 10.75 37.00 11.00 Z"/>
</g>
<g fill="None" fill-opacity="0.0" stroke="#E41927" stroke-opacity="0.88" stroke-width="0.3"><path d="
M 32.00 15.00 
C 29.72 15.86 27.25 15.66 25.00 17.00
C 24.38 17.46 22.46 19.44 22.00 20.00
C 19.12 23.50 18.80 39.38 13.00 36.00
C 13.00 36.00 13.00 36.50 13.00 37.00
C 12.65 36.50 14.35 39.04 13.00 38.00
C 14.14 44.99 17.26 49.32 23.77 53.23 C 30.28 57.14 36.26 54.47 43.25 51.25 C 50.24 48.02 46.85 35.02 40.08 39.08 C 33.31 43.15 29.27 45.98 24.93 39.07 C 20.59 32.16 24.49 23.70 30.00 21.00 C 35.50 18.30 41.75 31.06 46.74 24.74 C 51.73 18.43 42.91 11.46 38.00 11.00
C 38.00 11.00 37.16 10.77 37.00 11.00
C 35.49 13.16 34.38 14.10 32.00 15.00 Z"/>
</g>
<g fill="None" fill-opacity="0.0" stroke="#E41827" stroke-opacity="1.00" stroke-width="0.3"><path d="
M 22.00 20.00 
C 22.54 18.58 23.81 17.71 25.00 17.00
C 27.25 15.66 29.72 15.86 32.00 15.00
C 32.00 14.00 32.00 13.00 32.00 12.00
C 27.33 10.93 28.13 14.07 23.70 14.70 C 19.26 15.32 22.12 19.03 22.00 20.00 Z"/>
</g>
<g fill="None" fill-opacity="0.0" stroke="#E41827" stroke-opacity="1.00" stroke-width="0.3"><path d="
M 22.00 20.00 
C 22.46 19.44 24.38 17.46 25.00 17.00
C 23.81 17.71 22.54 18.58 22.00 20.00 Z"/>
</g>
<g fill="None" fill-opacity="0.0" stroke="#E41827" stroke-opacity="0.55" stroke-width="0.3"><path d="
M 13.00 38.00 
C 14.35 39.04 12.65 36.50 13.00 37.00
C 13.00 37.00 12.92 37.51 13.00 38.00 Z"/>
</g>
<g fill="#000000" fill-opacity="0.00" stroke="None">
<path d="
M 0.00 64.00 
L 64.00 64.00
L 64.00 0.00
L 0.00 0.00
L 0.00 64.00
M 38.00 11.00 
C 42.91 11.46 51.73 18.43 46.74 24.74 C 41.75 31.06 35.50 18.30 30.00 21.00 C 24.49 23.70 20.59 32.16 24.93 39.07 C 29.27 45.98 33.31 43.15 40.08 39.08 C 46.85 35.02 50.24 48.02 43.25 51.25 C 36.26 54.47 30.28 57.14 23.77 53.23 C 17.26 49.32 14.14 44.99 13.00 38.00
C 12.92 37.51 13.00 37.00 13.00 37.00
C 13.00 36.50 13.00 36.00 13.00 36.00
C 13.00 19.83 18.93 10.00 36.00 10.00
C 36.50 10.00 37.00 10.00 37.00 10.00
C 37.35 10.03 37.75 10.91 38.00 11.00 Z"/>
</g>
<g fill="#E41827" fill-opacity="0.90" stroke="None">
<path d="
M 13.00 36.00 
C 18.80 39.38 19.12 23.50 22.00 20.00
C 22.12 19.03 19.26 15.32 23.70 14.70 C 28.13 14.07 27.33 10.93 32.00 12.00
C 32.00 13.00 32.00 14.00 32.00 15.00
C 34.38 14.10 35.49 13.16 37.00 11.00
C 36.98 11.03 36.23 10.05 36.00 10.00
C 18.93 10.00 13.00 19.83 13.00 36.00 Z"/>
</g>
<g fill="#E41827" fill-opacity="0.42" stroke="None">
<path d="
M 37.00 11.00 
C 36.75 10.75 37.00 10.00 37.00 10.00
C 37.00 10.00 36.50 10.00 36.00 10.00
C 36.23 10.05 36.98 11.03 37.00 11.00 Z"/>
</g>
<g fill="#EC1224" fill-opacity="0.05" stroke="None">
<path d="
M 37.00 11.00 
C 37.16 10.77 38.00 11.00 38.00 11.00
C 37.75 10.91 37.35 10.03 37.00 10.00
C 37.00 10.00 36.75 10.75 37.00 11.00 Z"/>
</g>
<g fill="#E41927" fill-opacity="0.88" stroke="None">
<path d="
M 32.00 15.00 
C 29.72 15.86 27.25 15.66 25.00 17.00
C 24.38 17.46 22.46 19.44 22.00 20.00
C 19.12 23.50 18.80 39.38 13.00 36.00
C 13.00 36.00 13.00 36.50 13.00 37.00
C 12.65 36.50 14.35 39.04 13.00 38.00
C 14.14 44.99 17.26 49.32 23.77 53.23 C 30.28 57.14 36.26 54.47 43.25 51.25 C 50.24 48.02 46.85 35.02 40.08 39.08 C 33.31 43.15 29.27 45.98 24.93 39.07 C 20.59 32.16 24.49 23.70 30.00 21.00 C 35.50 18.30 41.75 31.06 46.74 24.74 C 51.73 18.43 42.91 11.46 38.00 11.00
C 38.00 11.00 37.16 10.77 37.00 11.00
C 35.49 13.16 34.38 14.10 32.00 15.00 Z"/>
</g>
<g fill="#E41827" fill-opacity="1.00" stroke="None">
<path d="
M 22.00 20.00 
C 22.54 18.58 23.81 17.71 25.00 17.00
C 27.25 15.66 29.72 15.86 32.00 15.00
C 32.00 14.00 32.00 13.00 32.00 12.00
C 27.33 10.93 28.13 14.07 23.70 14.70 C 19.26 15.32 22.12 19.03 22.00 20.00 Z"/>
</g>
<g fill="#E41827" fill-opacity="1.00" stroke="None">
<path d="
M 22.00 20.00 
C 22.46 19.44 24.38 17.46 25.00 17.00
C 23.81 17.71 22.54 18.58 22.00 20.00 Z"/>
</g>
<g fill="#E41827" fill-opacity="0.55" stroke="None">
<path d="
M 13.00 38.00 
C 14.35 39.04 12.65 36.50 13.00 37.00
C 13.00 37.00 12.92 37.51 13.00 38.00 Z"/>
</g>
</svg>