<?xml version="1.0" standalone="no"?>
<!DOCTYPE svg PUBLIC "-//W3C//DTD SVG 20010904//EN"
 "http://www.w3.org/TR/2001/REC-SVG-20010904/DTD/svg10.dtd">
<svg version="1.0" xmlns="http://www.w3.org/2000/svg"
 width="1069.000000pt" height="1280.000000pt" viewBox="0 0 1069.000000 1280.000000"
 preserveAspectRatio="xMidYMid meet">
<metadata>
Created by potrace 1.15, written by Peter Selinger 2001-2017
</metadata>
<g transform="translate(0.000000,1280.000000) scale(0.100000,-0.100000)"
fill="#000000" stroke="none">
<path d="M7550 12584 c-100 -8 -299 -36 -390 -54 -25 -6 -56 -12 -70 -14 -43
-8 -241 -54 -325 -76 -44 -12 -84 -23 -90 -24 -139 -36 -493 -157 -704 -240
-741 -295 -1507 -725 -2181 -1225 -479 -355 -980 -804 -1335 -1196 -60 -66
-112 -122 -116 -125 -5 -4 -183 -214 -298 -350 -43 -52 -258 -337 -320 -425
-446 -634 -800 -1328 -1013 -1985 -160 -496 -248 -928 -293 -1440 -33 -375
-13 -1101 40 -1480 34 -241 56 -358 111 -585 136 -567 385 -1093 719 -1519
217 -276 339 -403 555 -577 375 -302 931 -574 1505 -737 356 -101 604 -147
1039 -192 115 -12 587 -11 726 1 215 19 357 36 570 69 384 60 912 200 1365
362 194 69 269 100 605 248 52 23 232 110 400 194 308 154 471 242 735 396
285 166 694 435 816 536 96 78 309 293 399 399 80 96 188 251 222 320 87 173
117 366 69 433 -24 34 -87 72 -119 72 -39 0 -110 -32 -160 -73 -28 -23 -107
-87 -174 -142 -67 -55 -134 -109 -149 -120 -15 -11 -60 -45 -100 -76 -926
-705 -2032 -1198 -3024 -1347 -193 -29 -388 -52 -439 -52 l-41 1 29 15 c78 43
188 144 243 225 182 267 218 613 101 968 -85 256 -218 463 -443 686 -285 284
-590 457 -894 509 -189 32 -355 10 -511 -69 -155 -78 -280 -245 -337 -451 -25
-91 -27 -114 -27 -284 -1 -154 3 -203 22 -295 74 -357 287 -760 532 -1005 114
-114 185 -170 316 -246 l79 -45 -80 6 c-159 12 -377 47 -645 105 -107 23 -460
132 -485 150 -5 4 -21 11 -35 15 -47 14 -145 59 -295 135 -498 253 -902 630
-1194 1118 -60 99 -171 319 -220 432 -98 230 -188 530 -245 815 -46 228 -58
319 -98 700 -17 164 -17 949 0 1110 26 253 33 312 42 370 47 305 58 362 111
580 175 731 515 1441 987 2064 296 391 768 873 1136 1158 58 45 289 211 363
261 206 139 600 354 788 431 44 18 94 38 110 46 62 27 334 115 430 139 315 79
605 101 945 71 297 -26 446 -58 615 -130 61 -26 167 -100 196 -137 60 -77 171
-103 289 -68 80 23 273 118 318 154 15 13 115 85 222 161 383 273 440 322 521
448 54 83 72 153 67 257 -7 138 -63 230 -214 350 -150 119 -362 204 -639 256
-77 15 -523 27 -635 18z"/>
</g>
</svg>
