<?xml version="1.0" standalone="no"?>
<!DOCTYPE svg PUBLIC "-//W3C//DTD SVG 20010904//EN"
 "http://www.w3.org/TR/2001/REC-SVG-20010904/DTD/svg10.dtd">
<svg version="1.0" xmlns="http://www.w3.org/2000/svg"
 width="1280.000000pt" height="1237.000000pt" viewBox="0 0 1280.000000 1237.000000"
 preserveAspectRatio="xMidYMid meet">
<metadata>
Created by potrace 1.15, written by Peter Selinger 2001-2017
</metadata>
<g transform="translate(0.000000,1237.000000) scale(0.100000,-0.100000)"
fill="#000000" stroke="none">
<path d="M4649 11966 c-2 -2 -92 -9 -199 -15 -107 -6 -231 -16 -275 -21 -44
-6 -118 -15 -165 -21 -135 -16 -363 -52 -480 -76 -74 -15 -90 -19 -200 -43
-347 -76 -754 -220 -1070 -377 -222 -111 -377 -204 -590 -356 -319 -228 -665
-569 -913 -900 -107 -142 -136 -192 -160 -277 -42 -146 -30 -247 37 -317 35
-38 48 -44 93 -50 73 -8 145 28 215 108 61 69 271 261 409 375 296 243 646
453 1024 615 175 74 539 194 680 224 259 54 375 76 445 85 193 25 240 31 335
41 166 17 693 23 860 10 260 -20 490 -53 535 -76 84 -44 141 -191 170 -440 5
-44 14 -193 21 -330 12 -226 10 -308 -10 -830 -23 -582 -33 -788 -45 -965 -4
-52 -11 -160 -16 -240 -6 -80 -15 -210 -20 -290 -6 -80 -15 -219 -21 -310 -11
-177 -22 -349 -39 -580 -5 -80 -17 -246 -25 -370 -19 -284 -33 -471 -64 -905
-13 -167 -17 -231 -31 -435 -13 -180 -25 -350 -40 -540 -6 -74 -17 -229 -25
-345 -15 -221 -29 -401 -44 -600 -6 -66 -15 -183 -20 -260 -6 -77 -15 -193
-20 -258 -5 -65 -11 -120 -13 -123 -3 -2 -25 3 -49 12 -89 31 -194 44 -282 33
-178 -21 -312 -91 -452 -233 -264 -268 -408 -667 -422 -1167 -11 -362 65 -658
233 -910 131 -198 367 -378 561 -429 120 -31 331 -26 438 12 26 9 36 6 80 -21
139 -86 269 -60 655 134 314 157 576 329 693 454 108 115 116 233 25 358 -95
130 -131 257 -158 564 -12 128 -9 774 4 914 3 28 10 156 16 285 6 129 15 303
20 385 5 83 9 159 9 170 1 50 32 619 51 940 6 99 17 299 25 445 8 146 19 337
25 425 5 88 14 234 20 325 5 91 14 235 20 320 6 85 17 265 25 400 17 287 30
487 45 695 6 83 17 254 26 380 8 127 19 286 24 355 5 69 14 188 19 265 6 77
15 196 20 265 6 69 15 188 20 265 6 77 15 187 21 245 39 423 65 894 80 1454 5
191 10 349 12 351 3 3 199 -11 518 -35 272 -21 389 -30 555 -40 94 -5 202 -12
240 -15 39 -3 151 -10 250 -16 843 -48 1400 -50 1755 -8 285 34 351 44 560 90
312 68 549 147 784 262 360 175 614 411 681 634 23 74 20 168 -7 211 -21 35
-84 71 -124 72 -29 0 -90 -26 -141 -61 -141 -94 -360 -164 -683 -218 -111 -19
-366 -40 -565 -46 -333 -11 -1128 24 -1695 75 -63 6 -189 17 -280 25 -91 8
-207 19 -257 25 -51 5 -132 14 -180 20 -49 5 -126 14 -173 20 -77 9 -210 25
-425 50 -44 5 -120 14 -170 20 -49 6 -157 18 -240 26 -82 8 -195 19 -250 25
-243 24 -518 46 -740 59 -99 6 -252 15 -340 20 -151 9 -1207 15 -1216 6z"/>
</g>
</svg>
