<?xml version="1.0" standalone="no"?>
<!DOCTYPE svg PUBLIC "-//W3C//DTD SVG 20010904//EN"
 "http://www.w3.org/TR/2001/REC-SVG-20010904/DTD/svg10.dtd">
<svg version="1.0" xmlns="http://www.w3.org/2000/svg"
 width="1280.000000pt" height="1280.000000pt" viewBox="0 0 1280.000000 1280.000000"
 preserveAspectRatio="xMidYMid meet">
<metadata>
Created by potrace 1.15, written by Peter Selinger 2001-2017
</metadata>
<g transform="translate(0.000000,1280.000000) scale(0.100000,-0.100000)"
fill="#14a800" stroke="none">
<path d="M7035 11854 c-721 -75 -1310 -525 -1733 -1324 -193 -364 -314 -764
-368 -1215 -14 -117 -17 -224 -15 -642 l2 -502 -23 -5 c-13 -3 -131 -8 -263
-11 -458 -12 -700 -23 -730 -35 -36 -14 -91 -64 -113 -105 -15 -26 -16 -61
-14 -264 3 -180 7 -244 19 -273 10 -26 86 -106 256 -271 314 -302 345 -331
387 -353 38 -20 150 -22 381 -8 l107 6 6 -223 c3 -123 8 -539 11 -924 3 -385
7 -884 10 -1110 17 -1407 17 -1667 0 -1760 -29 -165 -93 -261 -211 -317 -113
-53 -339 -100 -619 -128 -124 -13 -176 -40 -213 -112 -23 -45 -24 -53 -23
-258 2 -179 5 -219 20 -258 10 -26 134 -288 275 -582 279 -581 288 -596 380
-621 42 -12 85 -8 916 71 113 11 754 72 1425 135 1362 129 1278 116 1339 202
39 56 45 101 45 338 1 173 -2 205 -18 240 -25 55 -892 1033 -942 1064 -46 27
-60 28 -297 16 l-173 -8 7 2154 c4 1185 11 2157 15 2160 5 3 150 11 322 18
171 7 500 21 729 31 466 21 460 20 530 98 50 56 58 104 58 365 0 248 -6 272
-71 334 -23 21 -188 101 -513 249 l-480 217 -289 -6 -289 -7 5 623 c5 632 13
784 52 1054 27 181 63 329 97 396 20 41 23 41 95 11 64 -26 1041 -234 1146
-244 293 -28 544 68 767 292 178 179 241 353 219 607 -31 362 -205 615 -519
752 -170 75 -343 105 -650 114 -113 3 -245 8 -295 10 -139 7 -715 14 -760 9z"/>
</g>
</svg>
