<svg xmlns="http://www.w3.org/2000/svg" xmlns:v="https://svgstorm.com"
viewBox = "0 0 64 64"
width="64"
height="64">
<g fill="None" fill-opacity="0.0" stroke="#000000" stroke-opacity="0.00" stroke-width="0.3"><path d="
M 0.00 64.00 
L 64.00 64.00
L 64.00 0.00
L 0.00 0.00
L 0.00 64.00
M 25.00 21.00 
C 25.12 21.26 25.73 21.80 26.00 22.00
C 28.39 23.08 29.71 25.92 31.00 28.00
C 31.16 27.77 32.84 27.77 33.00 28.00
C 37.94 20.06 38.16 18.97 45.75 11.75 C 53.34 4.53 58.13 22.26 55.00 29.00 C 51.87 35.74 60.61 53.00 50.97 54.97 C 41.33 56.95 45.50 36.53 45.00 31.00
C 45.00 30.96 44.00 31.00 44.00 31.00
C 41.14 34.71 37.66 43.26 31.99 42.99 C 26.32 42.72 22.33 35.36 20.00 31.00
C 19.89 30.79 19.00 31.00 19.00 31.00
C 17.39 36.57 22.91 55.29 13.99 54.99 C 5.07 54.69 9.00 36.17 9.00 30.00
C 9.00 24.83 6.81 12.45 12.08 10.08 C 17.35 7.72 24.24 17.10 25.00 21.00 Z"/>
</g>
<g fill="None" fill-opacity="0.0" stroke="#E41827" stroke-opacity="0.93" stroke-width="0.3"><path d="
M 9.00 30.00 
C 15.32 29.16 14.01 21.71 14.00 17.00
C 17.46 18.91 20.74 25.83 25.00 22.00
C 24.75 21.75 25.00 21.00 25.00 21.00
C 24.24 17.10 17.35 7.72 12.08 10.08 C 6.81 12.45 9.00 24.83 9.00 30.00
M 19.00 19.00 
C 16.34 18.47 11.62 14.95 14.00 12.00
C 16.34 12.75 19.27 16.04 19.00 19.00 Z"/>
</g>
<g fill="None" fill-opacity="0.0" stroke="#E41827" stroke-opacity="0.96" stroke-width="0.3"><path d="
M 33.00 28.00 
C 32.78 28.36 33.00 29.00 33.00 29.00
C 32.67 30.18 31.32 30.15 31.00 29.00
C 30.77 28.66 31.00 28.00 31.00 28.00
C 29.71 25.92 28.39 23.08 26.00 22.00
C 25.59 21.81 25.00 22.00 25.00 22.00
C 20.74 25.83 17.46 18.91 14.00 17.00
C 14.01 21.71 15.32 29.16 9.00 30.00
C 9.00 36.17 5.07 54.69 13.99 54.99 C 22.91 55.29 17.39 36.57 19.00 31.00
C 19.37 29.71 19.63 30.52 20.00 31.00
C 22.33 35.36 26.32 42.72 31.99 42.99 C 37.66 43.26 41.14 34.71 44.00 31.00
C 44.43 30.44 44.67 29.88 45.00 31.00
C 45.50 36.53 41.33 56.95 50.97 54.97 C 60.61 53.00 51.87 35.74 55.00 29.00 C 58.13 22.26 53.34 4.53 45.75 11.75 C 38.16 18.97 37.94 20.06 33.00 28.00
M 44.00 15.00 
C 44.74 15.74 43.18 14.18 44.00 15.00
M 26.00 37.00 
C 26.74 37.74 25.18 36.18 26.00 37.00
M 39.00 37.00 
C 39.74 37.74 38.18 36.18 39.00 37.00 Z"/>
</g>
<g fill="None" fill-opacity="0.0" stroke="#FDEDEE" stroke-opacity="1.00" stroke-width="0.3"><path d="
M 19.00 19.00 
C 19.27 16.04 16.34 12.75 14.00 12.00
C 11.62 14.95 16.34 18.47 19.00 19.00 Z"/>
</g>
<g fill="None" fill-opacity="0.0" stroke="#E41827" stroke-opacity="0.72" stroke-width="0.3"><path d="
M 44.00 15.00 
C 43.18 14.18 44.74 15.74 44.00 15.00 Z"/>
</g>
<g fill="None" fill-opacity="0.0" stroke="#E41827" stroke-opacity="0.51" stroke-width="0.3"><path d="
M 25.00 22.00 
C 25.00 22.00 25.59 21.81 26.00 22.00
C 25.73 21.80 25.12 21.26 25.00 21.00
C 25.00 21.00 24.75 21.75 25.00 22.00 Z"/>
</g>
<g fill="None" fill-opacity="0.0" stroke="#E41A23" stroke-opacity="0.06" stroke-width="0.3"><path d="
M 31.00 29.00 
C 31.16 29.23 32.84 29.23 33.00 29.00
C 33.00 29.00 32.78 28.36 33.00 28.00
C 32.84 27.77 31.16 27.77 31.00 28.00
C 31.00 28.00 30.77 28.66 31.00 29.00 Z"/>
</g>
<g fill="None" fill-opacity="0.0" stroke="#E31825" stroke-opacity="0.69" stroke-width="0.3"><path d="
M 33.00 29.00 
C 32.84 29.23 31.16 29.23 31.00 29.00
C 31.32 30.15 32.67 30.18 33.00 29.00 Z"/>
</g>
<g fill="None" fill-opacity="0.0" stroke="#E31628" stroke-opacity="0.22" stroke-width="0.3"><path d="
M 19.00 31.00 
C 19.00 31.00 19.89 30.79 20.00 31.00
C 19.63 30.52 19.37 29.71 19.00 31.00 Z"/>
</g>
<g fill="None" fill-opacity="0.0" stroke="#E11925" stroke-opacity="0.24" stroke-width="0.3"><path d="
M 44.00 31.00 
C 44.00 31.00 45.00 30.96 45.00 31.00
C 44.67 29.88 44.43 30.44 44.00 31.00 Z"/>
</g>
<g fill="None" fill-opacity="0.0" stroke="#E41827" stroke-opacity="0.72" stroke-width="0.3"><path d="
M 26.00 37.00 
C 25.18 36.18 26.74 37.74 26.00 37.00 Z"/>
</g>
<g fill="None" fill-opacity="0.0" stroke="#E21827" stroke-opacity="0.74" stroke-width="0.3"><path d="
M 39.00 37.00 
C 38.18 36.18 39.74 37.74 39.00 37.00 Z"/>
</g>
<g fill="#000000" fill-opacity="0.00" stroke="None">
<path d="
M 0.00 64.00 
L 64.00 64.00
L 64.00 0.00
L 0.00 0.00
L 0.00 64.00
M 25.00 21.00 
C 25.12 21.26 25.73 21.80 26.00 22.00
C 28.39 23.08 29.71 25.92 31.00 28.00
C 31.16 27.77 32.84 27.77 33.00 28.00
C 37.94 20.06 38.16 18.97 45.75 11.75 C 53.34 4.53 58.13 22.26 55.00 29.00 C 51.87 35.74 60.61 53.00 50.97 54.97 C 41.33 56.95 45.50 36.53 45.00 31.00
C 45.00 30.96 44.00 31.00 44.00 31.00
C 41.14 34.71 37.66 43.26 31.99 42.99 C 26.32 42.72 22.33 35.36 20.00 31.00
C 19.89 30.79 19.00 31.00 19.00 31.00
C 17.39 36.57 22.91 55.29 13.99 54.99 C 5.07 54.69 9.00 36.17 9.00 30.00
C 9.00 24.83 6.81 12.45 12.08 10.08 C 17.35 7.72 24.24 17.10 25.00 21.00 Z"/>
</g>
<g fill="#E41827" fill-opacity="0.93" stroke="None">
<path d="
M 9.00 30.00 
C 15.32 29.16 14.01 21.71 14.00 17.00
C 17.46 18.91 20.74 25.83 25.00 22.00
C 24.75 21.75 25.00 21.00 25.00 21.00
C 24.24 17.10 17.35 7.72 12.08 10.08 C 6.81 12.45 9.00 24.83 9.00 30.00
M 19.00 19.00 
C 16.34 18.47 11.62 14.95 14.00 12.00
C 16.34 12.75 19.27 16.04 19.00 19.00 Z"/>
</g>
<g fill="#E41827" fill-opacity="0.96" stroke="None">
<path d="
M 33.00 28.00 
C 32.78 28.36 33.00 29.00 33.00 29.00
C 32.67 30.18 31.32 30.15 31.00 29.00
C 30.77 28.66 31.00 28.00 31.00 28.00
C 29.71 25.92 28.39 23.08 26.00 22.00
C 25.59 21.81 25.00 22.00 25.00 22.00
C 20.74 25.83 17.46 18.91 14.00 17.00
C 14.01 21.71 15.32 29.16 9.00 30.00
C 9.00 36.17 5.07 54.69 13.99 54.99 C 22.91 55.29 17.39 36.57 19.00 31.00
C 19.37 29.71 19.63 30.52 20.00 31.00
C 22.33 35.36 26.32 42.72 31.99 42.99 C 37.66 43.26 41.14 34.71 44.00 31.00
C 44.43 30.44 44.67 29.88 45.00 31.00
C 45.50 36.53 41.33 56.95 50.97 54.97 C 60.61 53.00 51.87 35.74 55.00 29.00 C 58.13 22.26 53.34 4.53 45.75 11.75 C 38.16 18.97 37.94 20.06 33.00 28.00
M 44.00 15.00 
C 44.74 15.74 43.18 14.18 44.00 15.00
M 26.00 37.00 
C 26.74 37.74 25.18 36.18 26.00 37.00
M 39.00 37.00 
C 39.74 37.74 38.18 36.18 39.00 37.00 Z"/>
</g>
<g fill="#FDEDEE" fill-opacity="1.00" stroke="None">
<path d="
M 19.00 19.00 
C 19.27 16.04 16.34 12.75 14.00 12.00
C 11.62 14.95 16.34 18.47 19.00 19.00 Z"/>
</g>
<g fill="#E41827" fill-opacity="0.72" stroke="None">
<path d="
M 44.00 15.00 
C 43.18 14.18 44.74 15.74 44.00 15.00 Z"/>
</g>
<g fill="#E41827" fill-opacity="0.51" stroke="None">
<path d="
M 25.00 22.00 
C 25.00 22.00 25.59 21.81 26.00 22.00
C 25.73 21.80 25.12 21.26 25.00 21.00
C 25.00 21.00 24.75 21.75 25.00 22.00 Z"/>
</g>
<g fill="#E41A23" fill-opacity="0.06" stroke="None">
<path d="
M 31.00 29.00 
C 31.16 29.23 32.84 29.23 33.00 29.00
C 33.00 29.00 32.78 28.36 33.00 28.00
C 32.84 27.77 31.16 27.77 31.00 28.00
C 31.00 28.00 30.77 28.66 31.00 29.00 Z"/>
</g>
<g fill="#E31825" fill-opacity="0.69" stroke="None">
<path d="
M 33.00 29.00 
C 32.84 29.23 31.16 29.23 31.00 29.00
C 31.32 30.15 32.67 30.18 33.00 29.00 Z"/>
</g>
<g fill="#E31628" fill-opacity="0.22" stroke="None">
<path d="
M 19.00 31.00 
C 19.00 31.00 19.89 30.79 20.00 31.00
C 19.63 30.52 19.37 29.71 19.00 31.00 Z"/>
</g>
<g fill="#E11925" fill-opacity="0.24" stroke="None">
<path d="
M 44.00 31.00 
C 44.00 31.00 45.00 30.96 45.00 31.00
C 44.67 29.88 44.43 30.44 44.00 31.00 Z"/>
</g>
<g fill="#E41827" fill-opacity="0.72" stroke="None">
<path d="
M 26.00 37.00 
C 25.18 36.18 26.74 37.74 26.00 37.00 Z"/>
</g>
<g fill="#E21827" fill-opacity="0.74" stroke="None">
<path d="
M 39.00 37.00 
C 38.18 36.18 39.74 37.74 39.00 37.00 Z"/>
</g>
</svg>