<svg xmlns="http://www.w3.org/2000/svg" xmlns:v="https://svgstorm.com"
viewBox = "0 0 78 42"
width="956"
height="84">
<g fill="None" fill-opacity="0.0" stroke="#F7FDFC" stroke-opacity="1.00" stroke-width="0.3"><path d="
M 0.00 42.00 
L 34.00 42.00
C 33.77 40.95 35.20 41.26 35.00 42.00
L 44.00 42.00
C 43.77 40.95 45.20 41.26 45.00 42.00
L 57.00 42.00
C 56.77 40.95 58.20 41.26 58.00 42.00
L 78.00 42.00
L 78.00 0.00
L 44.00 0.00
C 43.99 1.19 42.01 1.17 42.00 0.00
L 0.00 0.00
L 0.00 42.00
M 53.00 20.00 
C 52.75 19.75 52.00 20.00 52.00 20.00
C 49.92 21.32 47.41 23.19 48.00 26.00
C 50.01 31.38 58.78 26.55 64.00 28.00
C 61.45 30.06 60.32 32.34 61.00 36.00
C 56.03 39.05 47.13 41.40 43.00 36.00
C 40.48 46.12 33.69 32.53 30.00 39.00
C 30.18 35.86 34.30 34.42 34.00 31.00
C 30.94 32.08 28.19 34.61 28.00 38.00
C 25.50 38.14 22.54 35.42 27.00 36.00
C 25.12 33.43 26.56 34.05 24.00 31.00
C 22.33 31.24 23.83 33.85 22.00 34.00
C 21.98 34.50 21.99 35.50 22.00 36.00
C 21.94 44.28 9.00 37.25 12.78 31.78 C 16.32 26.28 10.79 16.85 17.08 13.08 C 22.94 13.87 26.63 16.68 31.00 18.00
C 34.78 15.94 36.51 11.88 38.26 8.26 C 42.99 3.74 46.94 10.89 44.00 15.00
C 46.77 13.87 50.55 12.18 46.00 10.00
C 50.98 6.68 56.01 17.20 61.00 12.00
C 61.88 17.55 59.39 28.99 53.00 20.00
M 24.00 10.00 
C 23.85 11.63 22.49 9.87 24.00 10.00
M 33.00 10.00 
C 32.85 11.63 31.49 9.87 33.00 10.00
M 63.00 10.00 
C 62.85 11.63 61.49 9.87 63.00 10.00
M 10.00 23.00 
C 9.85 24.63 8.49 22.87 10.00 23.00
M 64.00 35.00 
C 63.85 36.63 62.49 34.87 64.00 35.00 Z"/>
</g>
<g fill="None" fill-opacity="0.0" stroke="#F8F1F5" stroke-opacity="1.00" stroke-width="0.3"><path d="
M 44.00 0.00 
L 42.00 0.00
C 42.01 1.17 43.99 1.19 44.00 0.00 Z"/>
</g>
<g fill="None" fill-opacity="0.0" stroke="#F8F1F5" stroke-opacity="1.00" stroke-width="0.3"><path d="
M 22.00 36.00 
C 14.85 44.52 14.01 29.01 16.00 24.00
C 15.98 23.50 16.03 22.50 16.00 22.00
C 14.39 7.38 24.68 19.13 29.00 24.00
C 30.83 19.25 36.60 16.75 38.00 12.00
C 39.25 12.30 39.71 13.83 41.00 14.00
C 41.02 13.50 41.25 12.21 41.00 12.00
C 40.76 10.33 38.15 11.83 38.00 10.00
C 39.55 7.03 44.11 8.22 43.00 12.00
C 43.00 13.67 43.00 15.33 43.00 17.00
C 48.57 12.15 61.37 11.59 60.00 22.00
C 57.27 22.49 54.98 21.70 53.00 20.00
C 59.39 28.99 61.88 17.55 61.00 12.00
C 56.01 17.20 50.98 6.68 46.00 10.00
C 50.55 12.18 46.77 13.87 44.00 15.00
C 46.94 10.89 42.99 3.74 38.26 8.26 C 36.51 11.88 34.78 15.94 31.00 18.00
C 26.63 16.68 22.94 13.87 17.08 13.08 C 10.79 16.85 16.32 26.28 12.78 31.78 C 9.00 37.25 21.94 44.28 22.00 36.00
M 28.00 23.00 
C 25.01 16.93 32.22 17.98 28.00 23.00 Z"/>
</g>
<g fill="None" fill-opacity="0.0" stroke="#D83442" stroke-opacity="1.00" stroke-width="0.3"><path d="
M 41.00 12.00 
C 41.25 11.75 42.72 11.75 43.00 12.00
C 44.11 8.22 39.55 7.03 38.00 10.00
C 38.15 11.83 40.76 10.33 41.00 12.00 Z"/>
</g>
<g fill="None" fill-opacity="0.0" stroke="#F8F1F5" stroke-opacity="1.00" stroke-width="0.3"><path d="
M 24.00 10.00 
C 22.49 9.87 23.85 11.63 24.00 10.00 Z"/>
</g>
<g fill="None" fill-opacity="0.0" stroke="#F8F1F5" stroke-opacity="1.00" stroke-width="0.3"><path d="
M 33.00 10.00 
C 31.49 9.87 32.85 11.63 33.00 10.00 Z"/>
</g>
<g fill="None" fill-opacity="0.0" stroke="#F8F1F5" stroke-opacity="1.00" stroke-width="0.3"><path d="
M 63.00 10.00 
C 61.49 9.87 62.85 11.63 63.00 10.00 Z"/>
</g>
<g fill="None" fill-opacity="0.0" stroke="#D83442" stroke-opacity="1.00" stroke-width="0.3"><path d="
M 16.00 22.00 
C 18.38 19.70 18.24 23.90 16.00 24.00
C 14.01 29.01 14.85 44.52 22.00 36.00
C 21.99 35.50 21.98 34.50 22.00 34.00
C 21.72 32.72 22.76 30.50 21.00 30.00
C 20.25 32.66 17.75 33.30 17.00 36.00
C 16.24 30.08 18.41 26.94 19.00 21.00
C 22.70 22.16 26.37 21.80 26.00 27.00
C 29.54 25.46 31.88 20.61 36.00 23.00
C 33.79 19.50 38.38 20.93 40.00 20.00
C 39.48 17.77 41.54 16.27 41.00 14.00
C 39.71 13.83 39.25 12.30 38.00 12.00
C 36.60 16.75 30.83 19.25 29.00 24.00
C 24.68 19.13 14.39 7.38 16.00 22.00
M 21.00 19.00 
C 16.18 17.16 20.61 14.29 21.00 19.00
M 18.00 18.00 
C 17.85 19.63 16.49 17.87 18.00 18.00
M 37.00 18.00 
C 36.06 20.16 34.20 17.48 37.00 18.00 Z"/>
</g>
<g fill="None" fill-opacity="0.0" stroke="#D91E2B" stroke-opacity="1.00" stroke-width="0.3"><path d="
M 41.00 14.00 
C 41.54 16.27 39.48 17.77 40.00 20.00
C 38.38 20.93 33.79 19.50 36.00 23.00
C 31.88 20.61 29.54 25.46 26.00 27.00
C 26.37 21.80 22.70 22.16 19.00 21.00
C 18.41 26.94 16.24 30.08 17.00 36.00
C 17.75 33.30 20.25 32.66 21.00 30.00
C 21.19 29.59 21.00 29.00 21.00 29.00
C 17.97 23.51 25.59 25.94 25.77 30.23 C 30.56 33.30 32.07 26.12 36.00 25.00
C 36.83 29.04 33.71 35.66 39.00 37.00
C 43.79 30.59 44.08 24.75 43.00 17.00
C 43.00 15.33 43.00 13.67 43.00 12.00
C 42.72 11.75 41.25 11.75 41.00 12.00
C 41.25 12.21 41.02 13.50 41.00 14.00
M 30.00 28.00 
C 29.85 29.63 28.49 27.87 30.00 28.00
M 39.00 34.00 
C 38.85 35.63 37.49 33.87 39.00 34.00 Z"/>
</g>
<g fill="None" fill-opacity="0.0" stroke="#D83442" stroke-opacity="1.00" stroke-width="0.3"><path d="
M 43.00 17.00 
C 44.08 24.75 43.79 30.59 39.00 37.00
C 33.71 35.66 36.83 29.04 36.00 25.00
C 32.07 26.12 30.56 33.30 25.77 30.23 C 25.59 25.94 17.97 23.51 21.00 29.00
C 24.52 29.56 32.29 36.26 34.00 27.00
C 32.74 33.61 39.74 45.59 42.00 33.00
C 45.88 37.43 52.02 39.88 57.22 36.22 C 64.32 31.65 55.24 26.14 50.78 31.78 C 44.47 30.15 46.78 18.36 52.00 20.00
C 52.00 20.00 52.75 19.75 53.00 20.00
C 54.98 21.70 57.27 22.49 60.00 22.00
C 61.37 11.59 48.57 12.15 43.00 17.00
M 51.00 15.00 
C 46.75 19.78 44.27 15.12 51.00 15.00 Z"/>
</g>
<g fill="None" fill-opacity="0.0" stroke="#D91E2B" stroke-opacity="1.00" stroke-width="0.3"><path d="
M 51.00 15.00 
C 44.27 15.12 46.75 19.78 51.00 15.00 Z"/>
</g>
<g fill="None" fill-opacity="0.0" stroke="#F8F1F5" stroke-opacity="1.00" stroke-width="0.3"><path d="
M 21.00 19.00 
C 20.61 14.29 16.18 17.16 21.00 19.00 Z"/>
</g>
<g fill="None" fill-opacity="0.0" stroke="#D91E2B" stroke-opacity="1.00" stroke-width="0.3"><path d="
M 18.00 18.00 
C 16.49 17.87 17.85 19.63 18.00 18.00 Z"/>
</g>
<g fill="None" fill-opacity="0.0" stroke="#F7FDFC" stroke-opacity="1.00" stroke-width="0.3"><path d="
M 28.00 23.00 
C 32.22 17.98 25.01 16.93 28.00 23.00 Z"/>
</g>
<g fill="None" fill-opacity="0.0" stroke="#D91E2B" stroke-opacity="1.00" stroke-width="0.3"><path d="
M 37.00 18.00 
C 34.20 17.48 36.06 20.16 37.00 18.00 Z"/>
</g>
<g fill="None" fill-opacity="0.0" stroke="#F8F1F5" stroke-opacity="1.00" stroke-width="0.3"><path d="
M 21.00 29.00 
C 21.00 29.00 21.19 29.59 21.00 30.00
C 22.76 30.50 21.72 32.72 22.00 34.00
C 23.83 33.85 22.33 31.24 24.00 31.00
C 26.56 34.05 25.12 33.43 27.00 36.00
C 22.54 35.42 25.50 38.14 28.00 38.00
C 28.19 34.61 30.94 32.08 34.00 31.00
C 34.30 34.42 30.18 35.86 30.00 39.00
C 33.69 32.53 40.48 46.12 43.00 36.00
C 47.13 41.40 56.03 39.05 61.00 36.00
C 60.32 32.34 61.45 30.06 64.00 28.00
C 58.78 26.55 50.01 31.38 48.00 26.00
C 47.41 23.19 49.92 21.32 52.00 20.00
C 46.78 18.36 44.47 30.15 50.78 31.78 C 55.24 26.14 64.32 31.65 57.22 36.22 C 52.02 39.88 45.88 37.43 42.00 33.00
C 39.74 45.59 32.74 33.61 34.00 27.00
C 32.29 36.26 24.52 29.56 21.00 29.00 Z"/>
</g>
<g fill="None" fill-opacity="0.0" stroke="#D91E2B" stroke-opacity="1.00" stroke-width="0.3"><path d="
M 16.00 22.00 
C 16.03 22.50 15.98 23.50 16.00 24.00
C 18.24 23.90 18.38 19.70 16.00 22.00 Z"/>
</g>
<g fill="None" fill-opacity="0.0" stroke="#F8F1F5" stroke-opacity="1.00" stroke-width="0.3"><path d="
M 10.00 23.00 
C 8.49 22.87 9.85 24.63 10.00 23.00 Z"/>
</g>
<g fill="None" fill-opacity="0.0" stroke="#D83442" stroke-opacity="1.00" stroke-width="0.3"><path d="
M 30.00 28.00 
C 28.49 27.87 29.85 29.63 30.00 28.00 Z"/>
</g>
<g fill="None" fill-opacity="0.0" stroke="#D83442" stroke-opacity="1.00" stroke-width="0.3"><path d="
M 39.00 34.00 
C 37.49 33.87 38.85 35.63 39.00 34.00 Z"/>
</g>
<g fill="None" fill-opacity="0.0" stroke="#F8F1F5" stroke-opacity="1.00" stroke-width="0.3"><path d="
M 64.00 35.00 
C 62.49 34.87 63.85 36.63 64.00 35.00 Z"/>
</g>
<g fill="None" fill-opacity="0.0" stroke="#F8F1F5" stroke-opacity="1.00" stroke-width="0.3"><path d="
M 34.00 42.00 
L 35.00 42.00
C 35.20 41.26 33.77 40.95 34.00 42.00 Z"/>
</g>
<g fill="None" fill-opacity="0.0" stroke="#F8F1F5" stroke-opacity="1.00" stroke-width="0.3"><path d="
M 44.00 42.00 
L 45.00 42.00
C 45.20 41.26 43.77 40.95 44.00 42.00 Z"/>
</g>
<g fill="None" fill-opacity="0.0" stroke="#F8F1F5" stroke-opacity="1.00" stroke-width="0.3"><path d="
M 57.00 42.00 
L 58.00 42.00
C 58.20 41.26 56.77 40.95 57.00 42.00 Z"/>
</g>
<g fill="#F7FDFC" fill-opacity="1.00" stroke="None">
<path d="
M 0.00 42.00 
L 34.00 42.00
C 33.77 40.95 35.20 41.26 35.00 42.00
L 44.00 42.00
C 43.77 40.95 45.20 41.26 45.00 42.00
L 57.00 42.00
C 56.77 40.95 58.20 41.26 58.00 42.00
L 78.00 42.00
L 78.00 0.00
L 44.00 0.00
C 43.99 1.19 42.01 1.17 42.00 0.00
L 0.00 0.00
L 0.00 42.00
M 53.00 20.00 
C 52.75 19.75 52.00 20.00 52.00 20.00
C 49.92 21.32 47.41 23.19 48.00 26.00
C 50.01 31.38 58.78 26.55 64.00 28.00
C 61.45 30.06 60.32 32.34 61.00 36.00
C 56.03 39.05 47.13 41.40 43.00 36.00
C 40.48 46.12 33.69 32.53 30.00 39.00
C 30.18 35.86 34.30 34.42 34.00 31.00
C 30.94 32.08 28.19 34.61 28.00 38.00
C 25.50 38.14 22.54 35.42 27.00 36.00
C 25.12 33.43 26.56 34.05 24.00 31.00
C 22.33 31.24 23.83 33.85 22.00 34.00
C 21.98 34.50 21.99 35.50 22.00 36.00
C 21.94 44.28 9.00 37.25 12.78 31.78 C 16.32 26.28 10.79 16.85 17.08 13.08 C 22.94 13.87 26.63 16.68 31.00 18.00
C 34.78 15.94 36.51 11.88 38.26 8.26 C 42.99 3.74 46.94 10.89 44.00 15.00
C 46.77 13.87 50.55 12.18 46.00 10.00
C 50.98 6.68 56.01 17.20 61.00 12.00
C 61.88 17.55 59.39 28.99 53.00 20.00
M 24.00 10.00 
C 23.85 11.63 22.49 9.87 24.00 10.00
M 33.00 10.00 
C 32.85 11.63 31.49 9.87 33.00 10.00
M 63.00 10.00 
C 62.85 11.63 61.49 9.87 63.00 10.00
M 10.00 23.00 
C 9.85 24.63 8.49 22.87 10.00 23.00
M 64.00 35.00 
C 63.85 36.63 62.49 34.87 64.00 35.00 Z"/>
</g>
<g fill="#F8F1F5" fill-opacity="1.00" stroke="None">
<path d="
M 44.00 0.00 
L 42.00 0.00
C 42.01 1.17 43.99 1.19 44.00 0.00 Z"/>
</g>
<g fill="#F8F1F5" fill-opacity="1.00" stroke="None">
<path d="
M 22.00 36.00 
C 14.85 44.52 14.01 29.01 16.00 24.00
C 15.98 23.50 16.03 22.50 16.00 22.00
C 14.39 7.38 24.68 19.13 29.00 24.00
C 30.83 19.25 36.60 16.75 38.00 12.00
C 39.25 12.30 39.71 13.83 41.00 14.00
C 41.02 13.50 41.25 12.21 41.00 12.00
C 40.76 10.33 38.15 11.83 38.00 10.00
C 39.55 7.03 44.11 8.22 43.00 12.00
C 43.00 13.67 43.00 15.33 43.00 17.00
C 48.57 12.15 61.37 11.59 60.00 22.00
C 57.27 22.49 54.98 21.70 53.00 20.00
C 59.39 28.99 61.88 17.55 61.00 12.00
C 56.01 17.20 50.98 6.68 46.00 10.00
C 50.55 12.18 46.77 13.87 44.00 15.00
C 46.94 10.89 42.99 3.74 38.26 8.26 C 36.51 11.88 34.78 15.94 31.00 18.00
C 26.63 16.68 22.94 13.87 17.08 13.08 C 10.79 16.85 16.32 26.28 12.78 31.78 C 9.00 37.25 21.94 44.28 22.00 36.00
M 28.00 23.00 
C 25.01 16.93 32.22 17.98 28.00 23.00 Z"/>
</g>
<g fill="#D83442" fill-opacity="1.00" stroke="None">
<path d="
M 41.00 12.00 
C 41.25 11.75 42.72 11.75 43.00 12.00
C 44.11 8.22 39.55 7.03 38.00 10.00
C 38.15 11.83 40.76 10.33 41.00 12.00 Z"/>
</g>
<g fill="#F8F1F5" fill-opacity="1.00" stroke="None">
<path d="
M 24.00 10.00 
C 22.49 9.87 23.85 11.63 24.00 10.00 Z"/>
</g>
<g fill="#F8F1F5" fill-opacity="1.00" stroke="None">
<path d="
M 33.00 10.00 
C 31.49 9.87 32.85 11.63 33.00 10.00 Z"/>
</g>
<g fill="#F8F1F5" fill-opacity="1.00" stroke="None">
<path d="
M 63.00 10.00 
C 61.49 9.87 62.85 11.63 63.00 10.00 Z"/>
</g>
<g fill="#D83442" fill-opacity="1.00" stroke="None">
<path d="
M 16.00 22.00 
C 18.38 19.70 18.24 23.90 16.00 24.00
C 14.01 29.01 14.85 44.52 22.00 36.00
C 21.99 35.50 21.98 34.50 22.00 34.00
C 21.72 32.72 22.76 30.50 21.00 30.00
C 20.25 32.66 17.75 33.30 17.00 36.00
C 16.24 30.08 18.41 26.94 19.00 21.00
C 22.70 22.16 26.37 21.80 26.00 27.00
C 29.54 25.46 31.88 20.61 36.00 23.00
C 33.79 19.50 38.38 20.93 40.00 20.00
C 39.48 17.77 41.54 16.27 41.00 14.00
C 39.71 13.83 39.25 12.30 38.00 12.00
C 36.60 16.75 30.83 19.25 29.00 24.00
C 24.68 19.13 14.39 7.38 16.00 22.00
M 21.00 19.00 
C 16.18 17.16 20.61 14.29 21.00 19.00
M 18.00 18.00 
C 17.85 19.63 16.49 17.87 18.00 18.00
M 37.00 18.00 
C 36.06 20.16 34.20 17.48 37.00 18.00 Z"/>
</g>
<g fill="#D91E2B" fill-opacity="1.00" stroke="None">
<path d="
M 41.00 14.00 
C 41.54 16.27 39.48 17.77 40.00 20.00
C 38.38 20.93 33.79 19.50 36.00 23.00
C 31.88 20.61 29.54 25.46 26.00 27.00
C 26.37 21.80 22.70 22.16 19.00 21.00
C 18.41 26.94 16.24 30.08 17.00 36.00
C 17.75 33.30 20.25 32.66 21.00 30.00
C 21.19 29.59 21.00 29.00 21.00 29.00
C 17.97 23.51 25.59 25.94 25.77 30.23 C 30.56 33.30 32.07 26.12 36.00 25.00
C 36.83 29.04 33.71 35.66 39.00 37.00
C 43.79 30.59 44.08 24.75 43.00 17.00
C 43.00 15.33 43.00 13.67 43.00 12.00
C 42.72 11.75 41.25 11.75 41.00 12.00
C 41.25 12.21 41.02 13.50 41.00 14.00
M 30.00 28.00 
C 29.85 29.63 28.49 27.87 30.00 28.00
M 39.00 34.00 
C 38.85 35.63 37.49 33.87 39.00 34.00 Z"/>
</g>
<g fill="#D83442" fill-opacity="1.00" stroke="None">
<path d="
M 43.00 17.00 
C 44.08 24.75 43.79 30.59 39.00 37.00
C 33.71 35.66 36.83 29.04 36.00 25.00
C 32.07 26.12 30.56 33.30 25.77 30.23 C 25.59 25.94 17.97 23.51 21.00 29.00
C 24.52 29.56 32.29 36.26 34.00 27.00
C 32.74 33.61 39.74 45.59 42.00 33.00
C 45.88 37.43 52.02 39.88 57.22 36.22 C 64.32 31.65 55.24 26.14 50.78 31.78 C 44.47 30.15 46.78 18.36 52.00 20.00
C 52.00 20.00 52.75 19.75 53.00 20.00
C 54.98 21.70 57.27 22.49 60.00 22.00
C 61.37 11.59 48.57 12.15 43.00 17.00
M 51.00 15.00 
C 46.75 19.78 44.27 15.12 51.00 15.00 Z"/>
</g>
<g fill="#D91E2B" fill-opacity="1.00" stroke="None">
<path d="
M 51.00 15.00 
C 44.27 15.12 46.75 19.78 51.00 15.00 Z"/>
</g>
<g fill="#F8F1F5" fill-opacity="1.00" stroke="None">
<path d="
M 21.00 19.00 
C 20.61 14.29 16.18 17.16 21.00 19.00 Z"/>
</g>
<g fill="#D91E2B" fill-opacity="1.00" stroke="None">
<path d="
M 18.00 18.00 
C 16.49 17.87 17.85 19.63 18.00 18.00 Z"/>
</g>
<g fill="#F7FDFC" fill-opacity="1.00" stroke="None">
<path d="
M 28.00 23.00 
C 32.22 17.98 25.01 16.93 28.00 23.00 Z"/>
</g>
<g fill="#D91E2B" fill-opacity="1.00" stroke="None">
<path d="
M 37.00 18.00 
C 34.20 17.48 36.06 20.16 37.00 18.00 Z"/>
</g>
<g fill="#F8F1F5" fill-opacity="1.00" stroke="None">
<path d="
M 21.00 29.00 
C 21.00 29.00 21.19 29.59 21.00 30.00
C 22.76 30.50 21.72 32.72 22.00 34.00
C 23.83 33.85 22.33 31.24 24.00 31.00
C 26.56 34.05 25.12 33.43 27.00 36.00
C 22.54 35.42 25.50 38.14 28.00 38.00
C 28.19 34.61 30.94 32.08 34.00 31.00
C 34.30 34.42 30.18 35.86 30.00 39.00
C 33.69 32.53 40.48 46.12 43.00 36.00
C 47.13 41.40 56.03 39.05 61.00 36.00
C 60.32 32.34 61.45 30.06 64.00 28.00
C 58.78 26.55 50.01 31.38 48.00 26.00
C 47.41 23.19 49.92 21.32 52.00 20.00
C 46.78 18.36 44.47 30.15 50.78 31.78 C 55.24 26.14 64.32 31.65 57.22 36.22 C 52.02 39.88 45.88 37.43 42.00 33.00
C 39.74 45.59 32.74 33.61 34.00 27.00
C 32.29 36.26 24.52 29.56 21.00 29.00 Z"/>
</g>
<g fill="#D91E2B" fill-opacity="1.00" stroke="None">
<path d="
M 16.00 22.00 
C 16.03 22.50 15.98 23.50 16.00 24.00
C 18.24 23.90 18.38 19.70 16.00 22.00 Z"/>
</g>
<g fill="#F8F1F5" fill-opacity="1.00" stroke="None">
<path d="
M 10.00 23.00 
C 8.49 22.87 9.85 24.63 10.00 23.00 Z"/>
</g>
<g fill="#D83442" fill-opacity="1.00" stroke="None">
<path d="
M 30.00 28.00 
C 28.49 27.87 29.85 29.63 30.00 28.00 Z"/>
</g>
<g fill="#D83442" fill-opacity="1.00" stroke="None">
<path d="
M 39.00 34.00 
C 37.49 33.87 38.85 35.63 39.00 34.00 Z"/>
</g>
<g fill="#F8F1F5" fill-opacity="1.00" stroke="None">
<path d="
M 64.00 35.00 
C 62.49 34.87 63.85 36.63 64.00 35.00 Z"/>
</g>
<g fill="#F8F1F5" fill-opacity="1.00" stroke="None">
<path d="
M 34.00 42.00 
L 35.00 42.00
C 35.20 41.26 33.77 40.95 34.00 42.00 Z"/>
</g>
<g fill="#F8F1F5" fill-opacity="1.00" stroke="None">
<path d="
M 44.00 42.00 
L 45.00 42.00
C 45.20 41.26 43.77 40.95 44.00 42.00 Z"/>
</g>
<g fill="#F8F1F5" fill-opacity="1.00" stroke="None">
<path d="
M 57.00 42.00 
L 58.00 42.00
C 58.20 41.26 56.77 40.95 57.00 42.00 Z"/>
</g>
</svg>