<svg xmlns="http://www.w3.org/2000/svg" xmlns:v="https://svgstorm.com"
viewBox = "0 0 64 64"
width="64"
height="64">
<g fill="None" fill-opacity="0.0" stroke="#000000" stroke-opacity="0.00" stroke-width="0.3"><path d="
M 0.00 64.00 
L 64.00 64.00
L 64.00 0.00
L 0.00 0.00
L 0.00 64.00
M 37.00 13.00 
C 37.25 13.25 37.00 14.00 37.00 14.00
C 37.00 20.63 36.14 31.83 37.00 38.00 C 37.86 44.17 37.15 57.71 30.00 55.00 C 22.85 52.29 27.00 38.42 27.00 33.00
C 27.00 27.19 27.64 20.75 27.00 15.00 C 26.36 9.25 35.65 7.83 37.00 13.00 Z"/>
</g>
<g fill="None" fill-opacity="0.0" stroke="#EC5D5C" stroke-opacity="0.96" stroke-width="0.3"><path d="
M 27.00 33.00 
C 33.32 32.16 32.00 24.71 32.00 20.00
C 31.93 19.78 25.27 15.15 31.00 14.00
C 31.08 13.92 32.09 14.91 32.00 15.00
C 33.36 15.39 34.99 13.65 36.00 13.00
C 36.35 12.77 37.00 13.00 37.00 13.00
C 35.65 7.83 26.36 9.25 27.00 15.00 C 27.64 20.75 27.00 27.19 27.00 33.00 Z"/>
</g>
<g fill="None" fill-opacity="0.0" stroke="#E41818" stroke-opacity="0.98" stroke-width="0.3"><path d="
M 32.00 15.00 
C 32.51 16.13 32.00 18.74 32.00 20.00
C 32.00 24.71 33.32 32.16 27.00 33.00
C 27.00 38.42 22.85 52.29 30.00 55.00 C 37.15 57.71 37.86 44.17 37.00 38.00 C 36.14 31.83 37.00 20.63 37.00 14.00
C 36.95 13.77 35.97 13.02 36.00 13.00
C 34.99 13.65 33.36 15.39 32.00 15.00 Z"/>
</g>
<g fill="None" fill-opacity="0.0" stroke="#E31818" stroke-opacity="0.75" stroke-width="0.3"><path d="
M 37.00 14.00 
C 37.00 14.00 37.25 13.25 37.00 13.00
C 37.00 13.00 36.35 12.77 36.00 13.00
C 35.97 13.02 36.95 13.77 37.00 14.00 Z"/>
</g>
<g fill="None" fill-opacity="0.0" stroke="#FEF7F7" stroke-opacity="1.00" stroke-width="0.3"><path d="
M 32.00 20.00 
C 32.00 18.74 32.51 16.13 32.00 15.00
C 31.88 14.74 30.92 14.09 31.00 14.00
C 25.27 15.15 31.93 19.78 32.00 20.00 Z"/>
</g>
<g fill="None" fill-opacity="0.0" stroke="#F6B1B1" stroke-opacity="1.00" stroke-width="0.3"><path d="
M 32.00 15.00 
C 32.09 14.91 31.08 13.92 31.00 14.00
C 30.92 14.09 31.88 14.74 32.00 15.00 Z"/>
</g>
<g fill="#000000" fill-opacity="0.00" stroke="None">
<path d="
M 0.00 64.00 
L 64.00 64.00
L 64.00 0.00
L 0.00 0.00
L 0.00 64.00
M 37.00 13.00 
C 37.25 13.25 37.00 14.00 37.00 14.00
C 37.00 20.63 36.14 31.83 37.00 38.00 C 37.86 44.17 37.15 57.71 30.00 55.00 C 22.85 52.29 27.00 38.42 27.00 33.00
C 27.00 27.19 27.64 20.75 27.00 15.00 C 26.36 9.25 35.65 7.83 37.00 13.00 Z"/>
</g>
<g fill="#EC5D5C" fill-opacity="0.96" stroke="None">
<path d="
M 27.00 33.00 
C 33.32 32.16 32.00 24.71 32.00 20.00
C 31.93 19.78 25.27 15.15 31.00 14.00
C 31.08 13.92 32.09 14.91 32.00 15.00
C 33.36 15.39 34.99 13.65 36.00 13.00
C 36.35 12.77 37.00 13.00 37.00 13.00
C 35.65 7.83 26.36 9.25 27.00 15.00 C 27.64 20.75 27.00 27.19 27.00 33.00 Z"/>
</g>
<g fill="#E41818" fill-opacity="0.98" stroke="None">
<path d="
M 32.00 15.00 
C 32.51 16.13 32.00 18.74 32.00 20.00
C 32.00 24.71 33.32 32.16 27.00 33.00
C 27.00 38.42 22.85 52.29 30.00 55.00 C 37.15 57.71 37.86 44.17 37.00 38.00 C 36.14 31.83 37.00 20.63 37.00 14.00
C 36.95 13.77 35.97 13.02 36.00 13.00
C 34.99 13.65 33.36 15.39 32.00 15.00 Z"/>
</g>
<g fill="#E31818" fill-opacity="0.75" stroke="None">
<path d="
M 37.00 14.00 
C 37.00 14.00 37.25 13.25 37.00 13.00
C 37.00 13.00 36.35 12.77 36.00 13.00
C 35.97 13.02 36.95 13.77 37.00 14.00 Z"/>
</g>
<g fill="#FEF7F7" fill-opacity="1.00" stroke="None">
<path d="
M 32.00 20.00 
C 32.00 18.74 32.51 16.13 32.00 15.00
C 31.88 14.74 30.92 14.09 31.00 14.00
C 25.27 15.15 31.93 19.78 32.00 20.00 Z"/>
</g>
<g fill="#F6B1B1" fill-opacity="1.00" stroke="None">
<path d="
M 32.00 15.00 
C 32.09 14.91 31.08 13.92 31.00 14.00
C 30.92 14.09 31.88 14.74 32.00 15.00 Z"/>
</g>
</svg>