<?xml version="1.0" standalone="no"?>
<!DOCTYPE svg PUBLIC "-//W3C//DTD SVG 20010904//EN"
 "http://www.w3.org/TR/2001/REC-SVG-20010904/DTD/svg10.dtd">
<svg version="1.0" xmlns="http://www.w3.org/2000/svg"
 width="122.000000pt" height="88.000000pt" viewBox="0 0 122.000000 88.000000"
 preserveAspectRatio="xMidYMid meet">
<metadata>
Created by potrace 1.10, written by Peter Selinger 2001-2011
</metadata>
<g transform="translate(0.000000,88.000000) scale(0.100000,-0.100000)"
fill="#15a800" stroke="none">
<path d="M425 788 c-36 -28 -65 -92 -65 -145 0 -36 -3 -43 -19 -43 -50 0 -63
-20 -34 -52 16 -18 15 -21 -6 -65 -15 -31 -25 -42 -30 -34 -4 7 -23 66 -42
132 l-34 120 -60 -6 c-72 -8 -97 -14 -93 -24 2 -4 48 -139 103 -299 55 -161
103 -292 106 -292 4 0 17 25 29 55 12 30 25 55 29 55 3 0 12 -9 19 -20 6 -11
17 -18 24 -15 7 2 50 6 96 10 l82 6 21 -46 c11 -26 23 -44 27 -40 3 3 46 119
94 257 54 156 96 260 110 275 46 50 105 76 184 81 88 6 124 -11 124 -57 0 -51
-66 -111 -123 -111 -25 0 -57 -27 -57 -48 0 -7 9 -12 19 -12 14 0 30 -20 57
-70 38 -74 92 -130 123 -130 33 0 104 71 88 87 -3 3 -19 -3 -36 -13 -30 -18
-31 -18 -58 2 -28 21 -76 92 -87 129 -5 16 3 25 40 44 65 35 94 73 94 125 0
50 -22 79 -76 96 -56 19 -167 7 -239 -25 -53 -24 -69 -26 -130 -21 l-70 5 -34
-117 c-45 -155 -44 -154 -70 -104 -26 52 -26 50 6 54 41 5 42 34 1 52 -18 8
-41 17 -52 20 -16 5 -18 14 -14 61 3 30 7 57 9 59 3 3 24 0 48 -5 36 -8 47 -7
62 7 23 21 24 47 3 68 -25 26 -134 22 -169 -6z m-68 -510 c-3 -8 -6 -5 -6 6
-1 11 2 17 5 13 3 -3 4 -12 1 -19z m120 -5 c-4 -3 -7 0 -7 7 0 7 3 10 7 7 3
-4 3 -10 0 -14z"/>
<path d="M857 649 c-9 -6 -15 -14 -12 -18 2 -5 -11 -87 -30 -182 -44 -218 -44
-221 -3 -217 l31 3 39 200 c21 110 36 206 33 213 -5 15 -33 15 -58 1z"/>
</g>
</svg>
